<svg xmlns="http://www.w3.org/2000/svg" viewBox="0 0 1280 600" width="1280" height="600"
     font-family="'Courier New', Courier, monospace">

  <defs>
    <!-- Grid pattern -->
    <pattern id="dots" x="0" y="0" width="32" height="32" patternUnits="userSpaceOnUse">
      <circle cx="1" cy="1" r="1" fill="#DDE1E9" opacity="0.6"/>
    </pattern>

    <!-- Arrow markers -->
    <marker id="arr" markerWidth="7" markerHeight="7" refX="6" refY="3.5" orient="auto">
      <path d="M0,0.5 L6,3.5 L0,6.5 Z" fill="#94A3B8"/>
    </marker>
    <marker id="arr-b" markerWidth="7" markerHeight="7" refX="6" refY="3.5" orient="auto">
      <path d="M0,0.5 L6,3.5 L0,6.5 Z" fill="#D97706"/>
    </marker>
    <marker id="arr-s" markerWidth="7" markerHeight="7" refX="6" refY="3.5" orient="auto">
      <path d="M0,0.5 L6,3.5 L0,6.5 Z" fill="#2563EB"/>
    </marker>
    <marker id="arr-g" markerWidth="7" markerHeight="7" refX="6" refY="3.5" orient="auto">
      <path d="M0,0.5 L6,3.5 L0,6.5 Z" fill="#7C3AED"/>
    </marker>
  </defs>

  <!-- ── CANVAS ── -->
  <rect width="1280" height="600" fill="#FAFAF8"/>
  <rect width="1280" height="600" fill="url(#dots)"/>

  <!-- ── TITLE BAR ── -->
  <rect width="1280" height="42" fill="#1A1A2E"/>
  <text x="20" y="27" font-size="12" font-weight="bold" fill="#F1F5F9" letter-spacing="0.06em">
    DATABRICKS LAKEHOUSE — MEDALLION ARCHITECTURE
  </text>
  <rect x="1060" y="11" width="200" height="20" rx="3" fill="#0078D4" opacity="0.9"/>
  <text x="1160" y="25" font-size="9" fill="white" text-anchor="middle" letter-spacing="0.07em">Microsoft Azure</text>

  <!-- ═══════════════════════════════════════════
       ZONE COLUMN BACKGROUNDS
  ════════════════════════════════════════════ -->

  <!-- Sources zone -->
  <rect x="16" y="50" width="153" height="350" rx="6" fill="white" stroke="#E2E8F0" stroke-width="1"/>
  <!-- Ingestion zone -->
  <rect x="183" y="50" width="153" height="350" rx="6" fill="white" stroke="#E2E8F0" stroke-width="1"/>

  <!-- Bronze zone (amber) -->
  <rect x="350" y="50" width="186" height="350" rx="6" fill="#FFFBEB" stroke="#FCD34D" stroke-width="1.5"/>
  <rect x="350" y="50" width="186" height="30" rx="6" fill="#D97706"/>
  <rect x="350" y="68"  width="186" height="12" fill="#D97706"/>
  <text x="443" y="70" font-size="10" fill="white" text-anchor="middle" letter-spacing="0.12em" font-weight="bold">BRONZE</text>

  <!-- Silver zone (blue) -->
  <rect x="550" y="50" width="272" height="350" rx="6" fill="#EFF6FF" stroke="#BFDBFE" stroke-width="1.5"/>
  <rect x="550" y="50" width="272" height="30" rx="6" fill="#1D4ED8"/>
  <rect x="550" y="68"  width="272" height="12" fill="#1D4ED8"/>
  <text x="686" y="70" font-size="10" fill="white" text-anchor="middle" letter-spacing="0.12em" font-weight="bold">SILVER</text>

  <!-- Gold zone (purple) -->
  <rect x="836" y="50" width="186" height="350" rx="6" fill="#F5F3FF" stroke="#DDD6FE" stroke-width="1.5"/>
  <rect x="836" y="50" width="186" height="30" rx="6" fill="#6D28D9"/>
  <rect x="836" y="68"  width="186" height="12" fill="#6D28D9"/>
  <text x="929" y="70" font-size="10" fill="white" text-anchor="middle" letter-spacing="0.12em" font-weight="bold">GOLD</text>

  <!-- Output zone -->
  <rect x="1036" y="50" width="168" height="350" rx="6" fill="white" stroke="#E2E8F0" stroke-width="1"/>

  <!-- Zone header labels (Sources, Ingestion, Output) -->
  <text x="92"   y="72" font-size="9" fill="#94A3B8" text-anchor="middle" letter-spacing="0.1em" font-weight="bold">SOURCES</text>
  <text x="259"  y="72" font-size="9" fill="#94A3B8" text-anchor="middle" letter-spacing="0.1em" font-weight="bold">INGESTION</text>
  <text x="1120" y="72" font-size="9" fill="#94A3B8" text-anchor="middle" letter-spacing="0.1em" font-weight="bold">OUTPUT</text>

  <!-- ═══════════════════════════════════════════
       SOURCE NODES  (green border, #ECFDF5 fill)
       x=22, w=140
       Row cy: 105, 153, 201, 249, 297, 345
  ════════════════════════════════════════════ -->

  <!-- streaming.orders -->
  <rect x="22" y="88"  width="140" height="34" rx="4" fill="#ECFDF5" stroke="#6EE7B7" stroke-width="1"/>
  <rect x="22" y="88"  width="4"   height="34" rx="2" fill="#10B981"/>
  <text x="34" y="109" font-size="9" fill="#065F46">streaming.orders</text>

  <!-- customers -->
  <rect x="22" y="136" width="140" height="34" rx="4" fill="#ECFDF5" stroke="#6EE7B7" stroke-width="1"/>
  <rect x="22" y="136" width="4"   height="34" rx="2" fill="#10B981"/>
  <text x="34" y="157" font-size="9" fill="#065F46">customers</text>

  <!-- restaurants -->
  <rect x="22" y="184" width="140" height="34" rx="4" fill="#ECFDF5" stroke="#6EE7B7" stroke-width="1"/>
  <rect x="22" y="184" width="4"   height="34" rx="2" fill="#10B981"/>
  <text x="34" y="205" font-size="9" fill="#065F46">restaurants</text>

  <!-- menu_items -->
  <rect x="22" y="232" width="140" height="34" rx="4" fill="#ECFDF5" stroke="#6EE7B7" stroke-width="1"/>
  <rect x="22" y="232" width="4"   height="34" rx="2" fill="#10B981"/>
  <text x="34" y="253" font-size="9" fill="#065F46">menu_items</text>

  <!-- historical_orders -->
  <rect x="22" y="280" width="140" height="34" rx="4" fill="#ECFDF5" stroke="#6EE7B7" stroke-width="1"/>
  <rect x="22" y="280" width="4"   height="34" rx="2" fill="#10B981"/>
  <text x="34" y="301" font-size="9" fill="#065F46">historical_orders</text>

  <!-- reviews -->
  <rect x="22" y="328" width="140" height="34" rx="4" fill="#ECFDF5" stroke="#6EE7B7" stroke-width="1"/>
  <rect x="22" y="328" width="4"   height="34" rx="2" fill="#10B981"/>
  <text x="34" y="349" font-size="9" fill="#065F46">reviews</text>

  <!-- ═══════════════════════════════════════════
       INGESTION NODES (purple border, #F5F3FF fill)
       x=189, w=140
  ════════════════════════════════════════════ -->

  <!-- Azure Event Hubs — spans rows 1+2: y=88, h=82 -->
  <rect x="189" y="88"  width="140" height="82" rx="4" fill="#F5F3FF" stroke="#C4B5FD" stroke-width="1"/>
  <rect x="189" y="88"  width="4"   height="82" rx="2" fill="#7C3AED"/>
  <text x="201" y="116" font-size="9" fill="#4C1D95" font-weight="bold">Azure Event Hubs</text>
  <text x="201" y="131" font-size="8" fill="#6D28D9">(Kafka protocol)</text>
  <text x="201" y="146" font-size="8" fill="#6D28D9">Streaming Ingest</text>
  <text x="201" y="161" font-size="8" fill="#6D28D9">Orders stream</text>

  <!-- Azure SQL Database — row 4 -->
  <rect x="189" y="232" width="140" height="34" rx="4" fill="#F5F3FF" stroke="#C4B5FD" stroke-width="1"/>
  <rect x="189" y="232" width="4"   height="34" rx="2" fill="#7C3AED"/>
  <text x="201" y="253" font-size="9" fill="#4C1D95">Azure SQL Database</text>

  <!-- Lakeflow Connect — row 5 -->
  <rect x="189" y="280" width="140" height="34" rx="4" fill="#F5F3FF" stroke="#C4B5FD" stroke-width="1"/>
  <rect x="189" y="280" width="4"   height="34" rx="2" fill="#7C3AED"/>
  <text x="201" y="301" font-size="9" fill="#4C1D95">Lakeflow Connect</text>

  <!-- ═══════════════════════════════════════════
       BRONZE NODES  (amber, x=356, w=174)
  ════════════════════════════════════════════ -->

  <!-- 01_bronze.orders — row 1 -->
  <rect x="356" y="88"  width="174" height="34" rx="4" fill="#FFFBEB" stroke="#FCD34D" stroke-width="1"/>
  <rect x="356" y="88"  width="4"   height="34" rx="2" fill="#D97706"/>
  <text x="368" y="109" font-size="9" fill="#92400E">01_bronze.orders</text>

  <!-- 01_bronze.historical_orders — row 5 -->
  <rect x="356" y="280" width="174" height="34" rx="4" fill="#FFFBEB" stroke="#FCD34D" stroke-width="1"/>
  <rect x="356" y="280" width="4"   height="34" rx="2" fill="#D97706"/>
  <text x="368" y="301" font-size="8.5" fill="#92400E">01_bronze.historical_orders</text>

  <!-- 01_bronze.reviews — row 6 -->
  <rect x="356" y="328" width="174" height="34" rx="4" fill="#FFFBEB" stroke="#FCD34D" stroke-width="1"/>
  <rect x="356" y="328" width="4"   height="34" rx="2" fill="#D97706"/>
  <text x="368" y="349" font-size="9" fill="#92400E">01_bronze.reviews</text>

  <!-- ═══════════════════════════════════════════
       SILVER NODES  (blue, x=556, w=260)
  ════════════════════════════════════════════ -->

  <!-- 02_silver.fact_orders — row 1 -->
  <rect x="556" y="88"  width="260" height="34" rx="4" fill="#EFF6FF" stroke="#93C5FD" stroke-width="1"/>
  <rect x="556" y="88"  width="4"   height="34" rx="2" fill="#2563EB"/>
  <text x="568" y="109" font-size="9" fill="#1D4ED8">02_silver.fact_orders</text>

  <!-- 02_silver.fact_order_items — row 2 -->
  <rect x="556" y="136" width="260" height="34" rx="4" fill="#EFF6FF" stroke="#93C5FD" stroke-width="1"/>
  <rect x="556" y="136" width="4"   height="34" rx="2" fill="#2563EB"/>
  <text x="568" y="157" font-size="9" fill="#1D4ED8">02_silver.fact_order_items</text>

  <!-- 02_silver.dim_customer — row 3 -->
  <rect x="556" y="184" width="260" height="34" rx="4" fill="#EFF6FF" stroke="#93C5FD" stroke-width="1"/>
  <rect x="556" y="184" width="4"   height="34" rx="2" fill="#2563EB"/>
  <text x="568" y="205" font-size="9" fill="#1D4ED8">02_silver.dim_customer</text>

  <!-- 02_silver.dim_restaurants — row 4 -->
  <rect x="556" y="232" width="260" height="34" rx="4" fill="#EFF6FF" stroke="#93C5FD" stroke-width="1"/>
  <rect x="556" y="232" width="4"   height="34" rx="2" fill="#2563EB"/>
  <text x="568" y="253" font-size="9" fill="#1D4ED8">02_silver.dim_restaurants</text>

  <!-- 02_silver.dim_menu_items — row 5 -->
  <rect x="556" y="280" width="260" height="34" rx="4" fill="#EFF6FF" stroke="#93C5FD" stroke-width="1"/>
  <rect x="556" y="280" width="4"   height="34" rx="2" fill="#2563EB"/>
  <text x="568" y="301" font-size="9" fill="#1D4ED8">02_silver.dim_menu_items</text>

  <!-- 02_silver.fact_reviews — row 6 -->
  <rect x="556" y="328" width="260" height="34" rx="4" fill="#EFF6FF" stroke="#93C5FD" stroke-width="1"/>
  <rect x="556" y="328" width="4"   height="34" rx="2" fill="#2563EB"/>
  <text x="568" y="349" font-size="9" fill="#1D4ED8">02_silver.fact_reviews</text>

  <!-- ═══════════════════════════════════════════
       GOLD NODES  (purple, x=842, w=174)
  ════════════════════════════════════════════ -->

  <!-- 03_gold.d_sales_summary — row 2 -->
  <rect x="842" y="136" width="174" height="34" rx="4" fill="#F5F3FF" stroke="#C4B5FD" stroke-width="1.5"/>
  <rect x="842" y="136" width="4"   height="34" rx="2" fill="#6D28D9"/>
  <text x="854" y="157" font-size="8.5" fill="#4C1D95">03_gold.d_sales_summary</text>

  <!-- 03_gold.d_customer_360 — row 4 -->
  <rect x="842" y="232" width="174" height="34" rx="4" fill="#F5F3FF" stroke="#C4B5FD" stroke-width="1.5"/>
  <rect x="842" y="232" width="4"   height="34" rx="2" fill="#6D28D9"/>
  <text x="854" y="253" font-size="8.5" fill="#4C1D95">03_gold.d_customer_360</text>

  <!-- 03_gold.d_restaurant_reviews — row 6 -->
  <rect x="842" y="328" width="174" height="34" rx="4" fill="#F5F3FF" stroke="#C4B5FD" stroke-width="1.5"/>
  <rect x="842" y="328" width="4"   height="34" rx="2" fill="#6D28D9"/>
  <text x="854" y="349" font-size="8" fill="#4C1D95">03_gold.d_restaurant_reviews</text>

  <!-- ═══════════════════════════════════════════
       OUTPUT NODES  (x=1042, w=156)
  ════════════════════════════════════════════ -->

  <!-- Databricks SQL Dashboard — spans rows 1-3: y=88, h=130 -->
  <rect x="1042" y="88"  width="156" height="130" rx="4" fill="#EFF6FF" stroke="#93C5FD" stroke-width="1.5"/>
  <rect x="1042" y="88"  width="4"   height="130" rx="2" fill="#2563EB"/>
  <text x="1054" y="130" font-size="9"   fill="#1D4ED8" font-weight="bold">Databricks SQL</text>
  <text x="1054" y="146" font-size="9"   fill="#1D4ED8" font-weight="bold">Dashboard</text>
  <!-- mini bar-chart -->
  <rect x="1054" y="161" width="10" height="20" rx="1" fill="#3B82F6" opacity="0.75"/>
  <rect x="1068" y="168" width="10" height="13" rx="1" fill="#3B82F6" opacity="0.55"/>
  <rect x="1082" y="157" width="10" height="24" rx="1" fill="#3B82F6" opacity="0.85"/>
  <rect x="1096" y="163" width="10" height="18" rx="1" fill="#3B82F6" opacity="0.65"/>
  <rect x="1110" y="154" width="10" height="27" rx="1" fill="#3B82F6" opacity="0.9"/>

  <!-- Databricks Mosaic AI — spans rows 5-6: y=280, h=82 -->
  <rect x="1042" y="280" width="156" height="82" rx="4" fill="#F5F3FF" stroke="#C4B5FD" stroke-width="1.5"/>
  <rect x="1042" y="280" width="4"   height="82" rx="2" fill="#6D28D9"/>
  <text x="1054" y="313" font-size="9"   fill="#4C1D95" font-weight="bold">Databricks</text>
  <text x="1054" y="329" font-size="9"   fill="#4C1D95" font-weight="bold">Mosaic AI</text>
  <text x="1054" y="346" font-size="7.5" fill="#6D28D9">ai_query() · Sentiment</text>

  <!-- ═══════════════════════════════════════════
       ARROWS  – Sources → Ingestion
       source right=162, ingestion left=189, midX=175
  ════════════════════════════════════════════ -->
  <!-- streaming.orders (105) → Event Hubs (cy=129) -->
  <path d="M162,105 C175,105 175,117 189,117" stroke="#94A3B8" stroke-width="1.5" fill="none" marker-end="url(#arr)"/>
  <!-- customers (153) → Event Hubs (cy=141) -->
  <path d="M162,153 C175,153 175,141 189,141" stroke="#94A3B8" stroke-width="1.5" fill="none" marker-end="url(#arr)"/>
  <!-- restaurants (201) → Azure SQL (249) -->
  <path d="M162,201 C175,201 175,249 189,249" stroke="#94A3B8" stroke-width="1.5" fill="none" marker-end="url(#arr)"/>
  <!-- menu_items (249) → Azure SQL (249) -->
  <path d="M162,249 C175,249 175,249 189,249" stroke="#94A3B8" stroke-width="1.5" fill="none" marker-end="url(#arr)"/>
  <!-- historical_orders (297) → Lakeflow (297) -->
  <path d="M162,297 C175,297 175,297 189,297" stroke="#94A3B8" stroke-width="1.5" fill="none" marker-end="url(#arr)"/>
  <!-- reviews (345) → Lakeflow (305) -->
  <path d="M162,345 C175,345 175,308 189,308" stroke="#94A3B8" stroke-width="1.5" fill="none" marker-end="url(#arr)"/>

  <!-- ── Ingestion → Bronze
       ingestion right=329, bronze left=356, midX=342  -->
  <!-- Event Hubs (cy≈129) → bronze.orders (105) -->
  <path d="M329,120 C342,120 342,105 356,105" stroke="#94A3B8" stroke-width="1.5" fill="none" marker-end="url(#arr)"/>
  <!-- Azure SQL (249) → bronze.hist_orders (297) -->
  <path d="M329,249 C342,249 342,297 356,297" stroke="#94A3B8" stroke-width="1.5" fill="none" marker-end="url(#arr)"/>
  <!-- Lakeflow (297) → bronze.hist_orders (297) -->
  <path d="M329,297 C342,297 342,297 356,297" stroke="#94A3B8" stroke-width="1.5" fill="none" marker-end="url(#arr)"/>
  <!-- Lakeflow (297) → bronze.reviews (345) -->
  <path d="M329,305 C342,305 342,345 356,345" stroke="#94A3B8" stroke-width="1.5" fill="none" marker-end="url(#arr)"/>

  <!-- ── Bronze → Silver
       bronze right=530, silver left=556, midX=543  (amber arrows) -->
  <!-- bronze.orders (105) → silver.fact_orders (105) -->
  <path d="M530,105 C543,105 543,105 556,105" stroke="#D97706" stroke-width="1.5" fill="none" marker-end="url(#arr-b)"/>
  <!-- bronze.orders (105) → silver.fact_order_items (153) -->
  <path d="M530,109 C543,109 543,153 556,153" stroke="#D97706" stroke-width="1.5" fill="none" marker-end="url(#arr-b)"/>
  <!-- bronze.hist_orders (297) → silver.dim_customer (201) -->
  <path d="M530,290 C543,290 543,201 556,201" stroke="#D97706" stroke-width="1.5" fill="none" marker-end="url(#arr-b)"/>
  <!-- bronze.hist_orders (297) → silver.dim_restaurants (249) -->
  <path d="M530,294 C543,294 543,249 556,249" stroke="#D97706" stroke-width="1.5" fill="none" marker-end="url(#arr-b)"/>
  <!-- bronze.hist_orders (297) → silver.dim_menu_items (297) -->
  <path d="M530,297 C543,297 543,297 556,297" stroke="#D97706" stroke-width="1.5" fill="none" marker-end="url(#arr-b)"/>
  <!-- bronze.reviews (345) → silver.fact_reviews (345) -->
  <path d="M530,345 C543,345 543,345 556,345" stroke="#D97706" stroke-width="1.5" fill="none" marker-end="url(#arr-b)"/>

  <!-- ── Silver → Gold
       silver right=816, gold left=842, midX=829  (blue arrows) -->
  <!-- silver.fact_orders (105) → gold.d_sales_summary (153) -->
  <path d="M816,105 C829,105 829,153 842,153" stroke="#2563EB" stroke-width="1.5" fill="none" marker-end="url(#arr-s)"/>
  <!-- silver.fact_order_items (153) → gold.d_sales_summary (153) -->
  <path d="M816,153 C829,153 829,153 842,153" stroke="#2563EB" stroke-width="1.5" fill="none" marker-end="url(#arr-s)"/>
  <!-- silver.dim_customer (201) → gold.d_customer_360 (249) -->
  <path d="M816,201 C829,201 829,249 842,249" stroke="#2563EB" stroke-width="1.5" fill="none" marker-end="url(#arr-s)"/>
  <!-- silver.dim_restaurants (249) → gold.d_customer_360 (249) -->
  <path d="M816,249 C829,249 829,249 842,249" stroke="#2563EB" stroke-width="1.5" fill="none" marker-end="url(#arr-s)"/>
  <!-- silver.dim_menu_items (297) → gold.d_customer_360 (249) -->
  <path d="M816,297 C829,297 829,249 842,249" stroke="#2563EB" stroke-width="1.5" fill="none" marker-end="url(#arr-s)"/>
  <!-- silver.fact_reviews (345) → gold.d_restaurant_reviews (345) -->
  <path d="M816,345 C829,345 829,345 842,345" stroke="#2563EB" stroke-width="1.5" fill="none" marker-end="url(#arr-s)"/>

  <!-- ── Gold → Output
       gold right=1016, output left=1042, midX=1029  (purple arrows) -->
  <!-- gold.d_sales_summary (153) → Dashboard (cy≈153) -->
  <path d="M1016,153 C1029,153 1029,153 1042,153" stroke="#7C3AED" stroke-width="1.5" fill="none" marker-end="url(#arr-g)"/>
  <!-- gold.d_customer_360 (249) → Dashboard (cy≈190) -->
  <path d="M1016,249 C1029,249 1029,195 1042,195" stroke="#7C3AED" stroke-width="1.5" fill="none" marker-end="url(#arr-g)"/>
  <!-- gold.d_restaurant_reviews (345) → Mosaic AI (cy≈321) -->
  <path d="M1016,345 C1029,345 1029,325 1042,325" stroke="#7C3AED" stroke-width="1.5" fill="none" marker-end="url(#arr-g)"/>

  <!-- ═══════════════════════════════════════════
       INFRASTRUCTURE BARS
  ════════════════════════════════════════════ -->
  <text x="16" y="422" font-size="8" fill="#94A3B8" letter-spacing="0.1em" font-weight="bold">INFRASTRUCTURE LAYER</text>
  <line x1="16" y1="426" x2="1212" y2="426" stroke="#E2E8F0" stroke-width="1"/>

  <!-- Unity Catalog bar (full width) -->
  <rect x="16"  y="432" width="1212" height="32" rx="4" fill="#1E1B4B"/>
  <text x="622" y="452" font-size="9" fill="white" text-anchor="middle" font-weight="bold" letter-spacing="0.08em">Unity Catalog</text>
  <text x="622" y="462" font-size="7" fill="#A5B4FC" text-anchor="middle" letter-spacing="0.05em">DATA GOVERNANCE · LINEAGE · ACCESS CONTROL</text>

  <!-- Spark Declarative Pipelines bar (Bronze+Silver) -->
  <rect x="350" y="472" width="472" height="32" rx="4" fill="#1C3D5A"/>
  <text x="586" y="491" font-size="9" fill="white" text-anchor="middle" font-weight="bold" letter-spacing="0.06em">Spark Declarative Pipelines</text>
  <text x="586" y="501" font-size="7" fill="#93C5FD" text-anchor="middle" letter-spacing="0.04em">BRONZE · SILVER TRANSFORMATIONS</text>

  <!-- Databricks SQL bar (Gold+Output) -->
  <rect x="836" y="472" width="392" height="32" rx="4" fill="#0F2C1E"/>
  <text x="1032" y="491" font-size="9" fill="white" text-anchor="middle" font-weight="bold" letter-spacing="0.06em">Databricks SQL</text>
  <text x="1032" y="501" font-size="7" fill="#6EE7B7" text-anchor="middle" letter-spacing="0.04em">GOLD SERVING LAYER · DASHBOARDS</text>

  <!-- ═══════════════════════════════════════════
       FOOTER
  ════════════════════════════════════════════ -->
  <rect y="560" width="1280" height="40" fill="#1A1A2E"/>
  <text x="20"   y="584" font-size="8.5" fill="#64748B">
    Restaurant Analytics · UAE Region · Sales · Loyalty · Customer 360 · Sentiment Analysis
  </text>
  <text x="1260" y="584" font-size="8.5" fill="#64748B" text-anchor="end">
    github.com/virajalmeida10/databricks-lakehouse
  </text>
</svg>
